<svg width="83" height="68" viewBox="0 0 83 68" fill="none" xmlns="http://www.w3.org/2000/svg">
<ellipse cx="45.2878" cy="66.7637" rx="36.9065" ry="1.23637" fill="#CCC37B"/>
<path fill-rule="evenodd" clip-rule="evenodd" d="M44.9693 53.9115C32.1979 53.9115 21.8441 43.5059 21.8441 30.6706C21.8441 17.8353 32.1979 7.42969 44.9693 7.42969C57.7415 7.42969 68.0945 17.8353 68.0945 30.6706" fill="white"/>
<path d="M44.9693 53.9115C32.1979 53.9115 21.8441 43.5059 21.8441 30.6706C21.8441 17.8353 32.1979 7.42969 44.9693 7.42969C57.7415 7.42969 68.0945 17.8353 68.0945 30.6706" stroke="black" stroke-linecap="round" stroke-linejoin="round"/>
<path fill-rule="evenodd" clip-rule="evenodd" d="M21.844 30.6706C21.844 17.8353 32.1978 7.42969 44.9692 7.42969C57.7406 7.42969 68.0944 17.8353 68.0944 30.6706C68.0944 43.5067 57.7406 53.9115 44.9692 53.9115" fill="white"/>
<path d="M21.844 30.6706C21.844 17.8353 32.1978 7.42969 44.9692 7.42969C57.7406 7.42969 68.0944 17.8353 68.0944 30.6706C68.0944 43.5067 57.7406 53.9115 44.9692 53.9115" stroke="black" stroke-linecap="round" stroke-linejoin="round"/>
<path d="M44.9697 7.42969V11.0396" stroke="black" stroke-linecap="round" stroke-linejoin="round"/>
<path d="M44.9697 50.3018V53.9116" stroke="black" stroke-linecap="round" stroke-linejoin="round"/>
<path d="M28.6173 14.2368L31.157 16.7892" stroke="black" stroke-linecap="round" stroke-linejoin="round"/>
<path d="M58.3824 44.1509L60.9221 46.7033" stroke="black" stroke-linecap="round" stroke-linejoin="round"/>
<path d="M21.8445 30.6703H25.4363" stroke="black" stroke-linecap="round" stroke-linejoin="round"/>
<path d="M64.5024 30.6703H68.0943" stroke="black" stroke-linecap="round" stroke-linejoin="round"/>
<path d="M28.6173 47.1044L31.157 44.5513" stroke="black" stroke-linecap="round" stroke-linejoin="round"/>
<path d="M58.7812 16.7892L61.3216 14.2368" stroke="black" stroke-linecap="round" stroke-linejoin="round"/>
<path fill-rule="evenodd" clip-rule="evenodd" d="M54.6934 30.5402C54.6934 35.134 50.9873 38.8587 46.4163 38.8587C41.8433 38.8587 38.1392 35.134 38.1392 30.5402C38.1392 25.9464 41.8433 22.2217 46.4163 22.2217C50.9873 22.2217 54.6934 25.9464 54.6934 30.5402Z" fill="#F7E24F"/>
<path d="M33.3605 23.7312L42.5211 29.9158" stroke="black" stroke-linecap="round" stroke-linejoin="round"/>
<path d="M43.2298 34.1256L40.1364 38.8198" stroke="black" stroke-linecap="round" stroke-linejoin="round"/>
<path fill-rule="evenodd" clip-rule="evenodd" d="M48.0392 30.6703C48.0392 32.3739 46.6648 33.7552 44.9697 33.7552C43.2738 33.7552 41.9001 32.3739 41.9001 30.6703C41.9001 28.9667 43.2738 27.5854 44.9697 27.5854C46.6648 27.5854 48.0392 28.9667 48.0392 30.6703Z" fill="#FFEA52" stroke="black" stroke-linecap="round" stroke-linejoin="round"/>
<path d="M7.91705 14.5739H21.7512" stroke="black" stroke-linecap="round" stroke-linejoin="round"/>
<path d="M7.91705 44.2941H21.7512" stroke="black" stroke-linecap="round" stroke-linejoin="round"/>
<path d="M1 29.4337H14.8341" stroke="black" stroke-linecap="round" stroke-linejoin="round"/>
</svg>
